<svg width="55" height="41" viewBox="0 0 55 41" fill="none" xmlns="http://www.w3.org/2000/svg">
<path d="M49.8438 40.5H5.15625C2.5764 40.5 0.5 38.4318 0.5 35.875V5.125C0.5 2.56817 2.5764 0.5 5.15625 0.5H49.8438C52.4236 0.5 54.5 2.56817 54.5 5.125V35.875C54.5 38.4318 52.4236 40.5 49.8438 40.5ZM5.15625 2.91667C3.92048 2.91667 2.9375 3.88933 2.9375 5.125V35.875C2.9375 37.1107 3.92048 38.0833 5.15625 38.0833H49.8438C51.0795 38.0833 52.0625 37.1107 52.0625 35.875V5.125C52.0625 3.88933 51.0795 2.91667 49.8438 2.91667H5.15625Z" fill="white" stroke="#131313"/>
<path d="M26.5 26.484V26.4654H26C23.815 26.4654 21.8166 25.5603 20.3094 23.8967C20.3093 23.8967 20.3093 23.8967 20.3093 23.8967L2.82507 4.5927L2.82507 4.5927L2.82345 4.59092C2.37356 4.09899 2.39592 3.2981 2.87229 2.82799C3.33309 2.37325 4.07145 2.39279 4.51592 2.87792C4.51617 2.87819 4.51641 2.87846 4.51666 2.87873L21.9982 22.1797C21.9984 22.18 21.9986 22.1802 21.9989 22.1805C24.0957 24.5106 27.9042 24.5106 30.001 22.1806C30.0013 22.1803 30.0016 22.18 30.0018 22.1797L47.4833 2.91332C47.4836 2.91308 47.4838 2.91283 47.484 2.91259C47.9285 2.42739 48.6669 2.40783 49.1277 2.86259C49.6041 3.33269 49.6264 4.13358 49.1765 4.62551L49.1749 4.62729L31.6907 23.9313C31.6907 23.9313 31.6907 23.9313 31.6906 23.9313C30.2991 25.4671 28.489 26.3565 26.5 26.484Z" fill="white" stroke="#131313"/>
</svg>
