<svg width="51" height="67" viewBox="0 0 51 67" fill="none" xmlns="http://www.w3.org/2000/svg">
<path fill-rule="evenodd" clip-rule="evenodd" d="M25.5 65.996L28.0766 63.1149C31.0003 59.7922 33.6299 56.6396 35.9697 53.641L37.9011 51.1125C45.9657 40.3298 50 31.7718 50 25.4464C50 11.9448 39.0322 1 25.5 1C11.9678 1 1 11.9448 1 25.4464C1 31.7718 5.03433 40.3298 13.0989 51.1125L15.0303 53.641C18.3682 57.8852 21.8604 62.0035 25.5 65.996Z" stroke="white" stroke-width="2" stroke-linecap="round" stroke-linejoin="round"/>
<path d="M25.5 34C30.1944 34 34 30.1944 34 25.5C34 20.8056 30.1944 17 25.5 17C20.8056 17 17 20.8056 17 25.5C17 30.1944 20.8056 34 25.5 34Z" stroke="white" stroke-width="2" stroke-linecap="round" stroke-linejoin="round"/>
</svg>
